<svg
   xmlns:dc="http://purl.org/dc/elements/1.1/"
   xmlns:cc="http://creativecommons.org/ns#"
   xmlns:rdf="http://www.w3.org/1999/02/22-rdf-syntax-ns#"
   xmlns:svg="http://www.w3.org/2000/svg"
   xmlns="http://www.w3.org/2000/svg"
   xmlns:sodipodi="http://sodipodi.sourceforge.net/DTD/sodipodi-0.dtd"
   xmlns:inkscape="http://www.inkscape.org/namespaces/inkscape"
   width="74mm"
   height="52mm"
   viewBox="0 0 74 52"
   version="1.1"
   id="svg1120"
   inkscape:version="1.0.2 (e86c8708, 2021-01-15)"
   sodipodi:docname="hrzz.svg">
  <defs
     id="defs1114">
    <clipPath
       clipPathUnits="userSpaceOnUse"
       id="clipPath849">
      <path
         d="M 0,842 H 595 V 0 H 0 Z"
         id="path847" />
    </clipPath>
    <clipPath
       clipPathUnits="userSpaceOnUse"
       id="clipPath921">
      <path
         d="M 0,842 H 595 V 0 H 0 Z"
         id="path919" />
    </clipPath>
    <clipPath
       clipPathUnits="userSpaceOnUse"
       id="clipPath967">
      <path
         d="M 0,842 H 595 V 0 H 0 Z"
         id="path965" />
    </clipPath>
    <clipPath
       clipPathUnits="userSpaceOnUse"
       id="clipPath991">
      <path
         d="m 345.678,441.929 h 21.178 v -23.6 h -21.178 z"
         id="path989" />
    </clipPath>
    <clipPath
       clipPathUnits="userSpaceOnUse"
       id="clipPath1007">
      <path
         d="m 368.645,441.929 h 21.179 v -23.6 h -21.179 z"
         id="path1005" />
    </clipPath>
  </defs>
  <sodipodi:namedview
     id="base"
     pagecolor="#ffffff"
     bordercolor="#666666"
     borderopacity="1.0"
     inkscape:pageopacity="0.0"
     inkscape:pageshadow="2"
     inkscape:zoom="0.35"
     inkscape:cx="396.85039"
     inkscape:cy="561.25984"
     inkscape:document-units="mm"
     inkscape:current-layer="layer1"
     inkscape:document-rotation="0"
     showgrid="false"
     inkscape:window-width="1252"
     inkscape:window-height="747"
     inkscape:window-x="0"
     inkscape:window-y="25"
     inkscape:window-maximized="0" />
  <metadata
     id="metadata1117">
    <rdf:RDF>
      <cc:Work
         rdf:about="">
        <dc:format>image/svg+xml</dc:format>
        <dc:type
           rdf:resource="http://purl.org/dc/dcmitype/StillImage" />
        <dc:title></dc:title>
      </cc:Work>
    </rdf:RDF>
  </metadata>
  <g
     inkscape:label="Layer 1"
     inkscape:groupmode="layer"
     id="layer1"
     style="opacity:1">
    <g
       id="g843"
       transform="matrix(0.35277777,0,0,-0.35277777,-68.519308,175.39001)">
      <g
         id="g845"
         clip-path="url(#clipPath849)">
        <g
           id="g851"
           transform="translate(343.8428,435.6255)">
          <path
             d="M 0,0 C -0.245,0.084 -0.507,0.161 -0.783,0.23 -1.06,0.3 -1.345,0.354 -1.636,0.392 -1.928,0.43 -2.197,0.449 -2.442,0.449 c -0.799,0 -1.514,-0.153 -2.144,-0.461 -0.63,-0.307 -1.16,-0.741 -1.59,-1.301 -0.429,-0.562 -0.758,-1.242 -0.979,-2.041 -0.224,-0.798 -0.335,-1.69 -0.335,-2.672 v -11.27 h -7.281 v 23.6 H -7.49 V 1.925 h 0.094 c 0.291,0.813 0.655,1.52 1.093,2.12 0.438,0.599 0.925,1.099 1.463,1.498 0.538,0.399 1.118,0.695 1.74,0.887 0.622,0.192 1.264,0.288 1.925,0.288 0.401,0 0.745,-0.027 1.037,-0.08 C 0.153,6.584 0.407,6.519 0.623,6.441 V -0.265 C 0.453,-0.173 0.246,-0.085 0,0"
             style="fill:#206598;fill-opacity:1;fill-rule:nonzero;stroke:none"
             id="path853" />
        </g>
        <g
           id="g855"
           transform="translate(316.1768,441.9292)">
          <path
             d="M 0,0 V -9.115 H -7.997 V 0 h -7.283 v -23.601 h 7.283 v 9.116 H 0 v -9.116 H 7.283 V 0 Z"
             style="fill:#206598;fill-opacity:1;fill-rule:nonzero;stroke:none"
             id="path857" />
        </g>
        <g
           id="g859"
           transform="translate(304.4307,405.4307)">
          <path
             d="M 0,0 C 1.972,0 2.98,-1.078 2.98,-1.078 L 2.412,-1.937 c 0,0 -0.951,0.893 -2.365,0.893 -1.833,0 -3.027,-1.391 -3.027,-3.131 0,-1.751 1.217,-3.235 3.038,-3.235 1.543,0 2.528,1.067 2.528,1.067 l 0.615,-0.824 c 0,0 -1.125,-1.299 -3.178,-1.299 -2.459,0 -4.186,1.879 -4.186,4.279 C -4.163,-1.809 -2.377,0 0,0"
             style="fill:#206598;fill-opacity:1;fill-rule:nonzero;stroke:none"
             id="path861" />
        </g>
        <g
           id="g863"
           transform="translate(309.084,402.9727)">
          <path
             d="m 0,0 h 1.09 v -1.021 c 0,-0.244 -0.024,-0.44 -0.024,-0.44 H 1.09 c 0.266,0.857 0.951,1.53 1.855,1.53 0.151,0 0.29,-0.023 0.29,-0.023 v -1.113 c 0,0 -0.151,0.035 -0.325,0.035 -0.719,0 -1.38,-0.511 -1.646,-1.38 -0.105,-0.337 -0.14,-0.696 -0.14,-1.056 v -2.4 H 0 Z"
             style="fill:#206598;fill-opacity:1;fill-rule:nonzero;stroke:none"
             id="path865" />
        </g>
        <g
           id="g867"
           transform="translate(316.0537,397.9395)">
          <path
             d="M 0,0 C 1.113,0 2.018,0.881 2.018,2.11 2.018,3.328 1.113,4.198 0,4.198 -1.102,4.198 -2.018,3.328 -2.018,2.11 -2.018,0.881 -1.102,0 0,0 m 0,5.172 c 1.751,0 3.166,-1.287 3.166,-3.062 0,-1.786 -1.415,-3.085 -3.166,-3.085 -1.751,0 -3.166,1.299 -3.166,3.085 0,1.775 1.415,3.062 3.166,3.062"
             style="fill:#206598;fill-opacity:1;fill-rule:nonzero;stroke:none"
             id="path869" />
        </g>
        <g
           id="g871"
           transform="translate(322.2031,397.8701)">
          <path
             d="M 0,0 C 0.95,0 1.565,0.997 1.565,1.867 V 2.053 H 1.275 C 0.429,2.053 -1.103,1.994 -1.103,0.939 -1.103,0.464 -0.731,0 0,0 m 1.299,2.899 h 0.255 v 0.104 c 0,0.963 -0.545,1.287 -1.287,1.287 -0.906,0 -1.636,-0.567 -1.636,-0.567 l -0.464,0.823 c 0,0 0.847,0.695 2.192,0.695 1.485,0 2.32,-0.811 2.32,-2.296 V -0.766 H 1.635 v 0.557 c 0,0.267 0.023,0.464 0.023,0.464 H 1.635 c 0,0 -0.476,-1.16 -1.879,-1.16 -1.009,0 -1.994,0.615 -1.994,1.786 0,1.936 2.551,2.018 3.537,2.018"
             style="fill:#206598;fill-opacity:1;fill-rule:nonzero;stroke:none"
             id="path873" />
        </g>
        <g
           id="g875"
           transform="translate(326.6924,401.9863)">
          <path
             d="m 0,0 h -0.766 v 0.905 h 0.8 V 2.598 H 1.125 V 0.905 H 2.54 V 0 H 1.125 v -2.609 c 0,-1.171 0.823,-1.322 1.252,-1.322 0.163,0 0.267,0.023 0.267,0.023 v -0.997 c 0,0 -0.163,-0.023 -0.394,-0.023 -0.754,0 -2.25,0.232 -2.25,2.192 z"
             style="fill:#206598;fill-opacity:1;fill-rule:nonzero;stroke:none"
             id="path877" />
        </g>
        <path
           d="m 330.717,402.973 h 1.125 v -5.868 h -1.125 z m -0.011,2.319 h 1.136 v -1.148 h -1.136 z"
           style="fill:#206598;fill-opacity:1;fill-rule:nonzero;stroke:none"
           id="path879" />
        <g
           id="g881"
           transform="translate(335.4844,397.8701)">
          <path
             d="M 0,0 C 0.95,0 1.565,0.997 1.565,1.867 V 2.053 H 1.275 C 0.429,2.053 -1.103,1.994 -1.103,0.939 -1.103,0.464 -0.731,0 0,0 m 1.299,2.899 h 0.255 v 0.104 c 0,0.963 -0.545,1.287 -1.287,1.287 -0.906,0 -1.636,-0.567 -1.636,-0.567 l -0.464,0.823 c 0,0 0.847,0.695 2.192,0.695 1.485,0 2.32,-0.811 2.32,-2.296 V -0.766 H 1.635 v 0.557 c 0,0.267 0.023,0.464 0.023,0.464 H 1.635 c 0,0 -0.476,-1.16 -1.879,-1.16 -1.009,0 -1.994,0.615 -1.994,1.786 0,1.936 2.551,2.018 3.537,2.018"
             style="fill:#206598;fill-opacity:1;fill-rule:nonzero;stroke:none"
             id="path883" />
        </g>
        <g
           id="g885"
           transform="translate(339.7305,402.9727)">
          <path
             d="m 0,0 h 1.09 v -0.777 c 0,-0.232 -0.024,-0.429 -0.024,-0.429 H 1.09 c 0.231,0.51 0.928,1.345 2.203,1.345 1.38,0 2.018,-0.754 2.018,-2.25 V -5.868 H 4.186 v 3.502 c 0,0.823 -0.174,1.472 -1.114,1.472 -0.892,0 -1.611,-0.59 -1.855,-1.437 C 1.147,-2.563 1.124,-2.83 1.124,-3.12 V -5.868 H 0 Z"
             style="fill:#206598;fill-opacity:1;fill-rule:nonzero;stroke:none"
             id="path887" />
        </g>
        <g
           id="g889"
           transform="translate(350.1934,398.9141)">
          <path
             d="m 0,0 c 0,0 0.869,-0.882 2.087,-0.882 0.766,0 1.415,0.429 1.415,1.206 0,1.775 -3.966,1.392 -3.966,3.908 0,1.276 1.102,2.285 2.644,2.285 1.519,0 2.319,-0.824 2.319,-0.824 L 3.978,4.742 c 0,0 -0.754,0.708 -1.798,0.708 -0.869,0 -1.485,-0.545 -1.485,-1.194 0,-1.693 3.967,-1.241 3.967,-3.897 0,-1.264 -0.974,-2.308 -2.598,-2.308 -1.74,0 -2.713,1.079 -2.713,1.079 z"
             style="fill:#206598;fill-opacity:1;fill-rule:nonzero;stroke:none"
             id="path891" />
        </g>
        <g
           id="g893"
           transform="translate(359.1123,403.1113)">
          <path
             d="M 0,0 C 1.473,0 2.203,-0.857 2.203,-0.857 L 1.67,-1.646 c 0,0 -0.626,0.672 -1.623,0.672 -1.184,0 -2.041,-0.881 -2.041,-2.088 0,-1.194 0.857,-2.11 2.075,-2.11 1.09,0 1.81,0.789 1.81,0.789 l 0.452,-0.824 c 0,0 -0.812,-0.939 -2.343,-0.939 -1.844,0 -3.143,1.31 -3.143,3.073 C -3.143,-1.333 -1.844,0 0,0"
             style="fill:#206598;fill-opacity:1;fill-rule:nonzero;stroke:none"
             id="path895" />
        </g>
        <path
           d="m 362.617,402.973 h 1.124 v -5.868 h -1.124 z m -0.012,2.319 h 1.136 v -1.148 h -1.136 z"
           style="fill:#206598;fill-opacity:1;fill-rule:nonzero;stroke:none"
           id="path897" />
        <g
           id="g899"
           transform="translate(369.3086,400.7227)">
          <path
             d="M 0,0 C -0.034,1.009 -0.661,1.496 -1.414,1.496 -2.272,1.496 -2.969,0.963 -3.131,0 Z m -1.392,2.389 c 1.659,0 2.54,-1.229 2.54,-2.748 0,-0.151 -0.035,-0.488 -0.035,-0.488 h -4.279 c 0.059,-1.287 0.975,-1.936 2.019,-1.936 1.008,0 1.739,0.684 1.739,0.684 l 0.464,-0.823 c 0,0 -0.87,-0.836 -2.274,-0.836 -1.844,0 -3.107,1.334 -3.107,3.073 0,1.868 1.263,3.074 2.933,3.074"
             style="fill:#206598;fill-opacity:1;fill-rule:nonzero;stroke:none"
             id="path901" />
        </g>
        <g
           id="g903"
           transform="translate(371.7109,402.9727)">
          <path
             d="m 0,0 h 1.09 v -0.777 c 0,-0.232 -0.024,-0.429 -0.024,-0.429 H 1.09 c 0.231,0.51 0.928,1.345 2.203,1.345 1.38,0 2.018,-0.754 2.018,-2.25 V -5.868 H 4.186 v 3.502 c 0,0.823 -0.174,1.472 -1.114,1.472 -0.892,0 -1.611,-0.59 -1.855,-1.437 C 1.147,-2.563 1.124,-2.83 1.124,-3.12 V -5.868 H 0 Z"
             style="fill:#206598;fill-opacity:1;fill-rule:nonzero;stroke:none"
             id="path905" />
        </g>
        <g
           id="g907"
           transform="translate(381.3145,403.1113)">
          <path
             d="M 0,0 C 1.473,0 2.203,-0.857 2.203,-0.857 L 1.67,-1.646 c 0,0 -0.626,0.672 -1.623,0.672 -1.184,0 -2.041,-0.881 -2.041,-2.088 0,-1.194 0.857,-2.11 2.075,-2.11 1.091,0 1.81,0.789 1.81,0.789 l 0.452,-0.824 c 0,0 -0.812,-0.939 -2.343,-0.939 -1.844,0 -3.143,1.31 -3.143,3.073 C -3.143,-1.333 -1.844,0 0,0"
             style="fill:#206598;fill-opacity:1;fill-rule:nonzero;stroke:none"
             id="path909" />
        </g>
        <g
           id="g911"
           transform="translate(388.5059,400.7227)">
          <path
             d="M 0,0 C -0.034,1.009 -0.661,1.496 -1.414,1.496 -2.272,1.496 -2.969,0.963 -3.131,0 Z m -1.392,2.389 c 1.659,0 2.54,-1.229 2.54,-2.748 0,-0.151 -0.035,-0.488 -0.035,-0.488 h -4.279 c 0.059,-1.287 0.975,-1.936 2.019,-1.936 1.008,0 1.739,0.684 1.739,0.684 l 0.464,-0.823 c 0,0 -0.87,-0.836 -2.274,-0.836 -1.844,0 -3.107,1.334 -3.107,3.073 0,1.868 1.263,3.074 2.933,3.074"
             style="fill:#206598;fill-opacity:1;fill-rule:nonzero;stroke:none"
             id="path913" />
        </g>
      </g>
    </g>
    <g
       id="g915"
       transform="matrix(0.35277777,0,0,-0.35277777,-68.519308,175.39001)">
      <g
         id="g917"
         clip-path="url(#clipPath921)">
        <g
           id="g923"
           transform="translate(300.8242,391.1377)">
          <path
             d="M 0,0 H 4.511 V -0.997 H 1.148 V -3.688 H 4.013 V -4.686 H 1.148 V -8.188 H 0 Z"
             style="fill:#206598;fill-opacity:1;fill-rule:nonzero;stroke:none"
             id="path925" />
        </g>
        <g
           id="g927"
           transform="translate(309.2568,383.7852)">
          <path
             d="M 0,0 C 1.113,0 2.018,0.881 2.018,2.11 2.018,3.328 1.113,4.198 0,4.198 -1.102,4.198 -2.018,3.328 -2.018,2.11 -2.018,0.881 -1.102,0 0,0 m 0,5.172 c 1.751,0 3.166,-1.287 3.166,-3.062 0,-1.786 -1.415,-3.085 -3.166,-3.085 -1.751,0 -3.166,1.299 -3.166,3.085 0,1.775 1.415,3.062 3.166,3.062"
             style="fill:#206598;fill-opacity:1;fill-rule:nonzero;stroke:none"
             id="path929" />
        </g>
        <g
           id="g931"
           transform="translate(313.5605,388.8184)">
          <path
             d="m 0,0 h 1.125 v -3.502 c 0,-0.812 0.162,-1.462 1.102,-1.462 1.195,0 1.902,1.056 1.902,2.215 V 0 h 1.125 v -5.868 h -1.09 v 0.777 c 0,0.243 0.023,0.429 0.023,0.429 H 4.164 C 3.92,-5.242 3.154,-6.008 2.007,-6.008 0.685,-6.008 0,-5.312 0,-3.758 Z"
             style="fill:#206598;fill-opacity:1;fill-rule:nonzero;stroke:none"
             id="path933" />
        </g>
        <g
           id="g935"
           transform="translate(320.6953,388.8184)">
          <path
             d="m 0,0 h 1.09 v -0.777 c 0,-0.232 -0.024,-0.429 -0.024,-0.429 H 1.09 c 0.231,0.51 0.928,1.345 2.203,1.345 1.38,0 2.018,-0.754 2.018,-2.25 V -5.868 H 4.186 v 3.502 c 0,0.823 -0.174,1.472 -1.114,1.472 -0.892,0 -1.611,-0.59 -1.855,-1.437 C 1.147,-2.563 1.124,-2.83 1.124,-3.12 V -5.868 H 0 Z"
             style="fill:#206598;fill-opacity:1;fill-rule:nonzero;stroke:none"
             id="path937" />
        </g>
        <g
           id="g939"
           transform="translate(330.2285,383.7852)">
          <path
             d="m 0,0 c 0.87,0 1.693,0.614 1.693,2.11 0,1.044 -0.545,2.088 -1.658,2.088 -0.928,0 -1.693,-0.765 -1.693,-2.099 C -1.658,0.823 -0.974,0 0,0 m -0.15,5.172 c 1.356,0 1.808,-0.928 1.808,-0.928 h 0.024 c 0,0 -0.024,0.174 -0.024,0.395 V 7.353 H 2.783 V -0.835 H 1.717 v 0.557 c 0,0.231 0.012,0.394 0.012,0.394 H 1.705 c 0,0 -0.476,-1.091 -1.925,-1.091 -1.589,0 -2.586,1.253 -2.586,3.074 0,1.867 1.102,3.073 2.656,3.073"
             style="fill:#206598;fill-opacity:1;fill-rule:nonzero;stroke:none"
             id="path941" />
        </g>
        <g
           id="g943"
           transform="translate(336.6563,383.7158)">
          <path
             d="M 0,0 C 0.95,0 1.565,0.997 1.565,1.867 V 2.053 H 1.275 C 0.429,2.053 -1.103,1.994 -1.103,0.939 -1.103,0.464 -0.731,0 0,0 m 1.299,2.899 h 0.255 v 0.104 c 0,0.963 -0.545,1.287 -1.287,1.287 -0.906,0 -1.636,-0.567 -1.636,-0.567 l -0.464,0.823 c 0,0 0.847,0.695 2.192,0.695 1.485,0 2.32,-0.811 2.32,-2.296 V -0.766 H 1.635 v 0.557 c 0,0.267 0.023,0.464 0.023,0.464 H 1.635 c 0,0 -0.476,-1.16 -1.879,-1.16 -1.009,0 -1.994,0.615 -1.994,1.786 0,1.936 2.551,2.018 3.537,2.018"
             style="fill:#206598;fill-opacity:1;fill-rule:nonzero;stroke:none"
             id="path945" />
        </g>
        <g
           id="g947"
           transform="translate(341.3779,387.832)">
          <path
             d="m 0,0 h -0.766 v 0.905 h 0.8 V 2.598 H 1.125 V 0.905 H 2.54 V 0 H 1.125 v -2.609 c 0,-1.171 0.823,-1.322 1.252,-1.322 0.163,0 0.267,0.023 0.267,0.023 v -0.997 c 0,0 -0.163,-0.023 -0.394,-0.023 -0.754,0 -2.25,0.232 -2.25,2.192 z"
             style="fill:#206598;fill-opacity:1;fill-rule:nonzero;stroke:none"
             id="path949" />
        </g>
        <path
           d="m 345.402,388.818 h 1.125 v -5.868 h -1.125 z m -0.01,2.32 h 1.136 v -1.148 h -1.136 z"
           style="fill:#206598;fill-opacity:1;fill-rule:nonzero;stroke:none"
           id="path951" />
        <g
           id="g953"
           transform="translate(351.1436,383.7852)">
          <path
             d="M 0,0 C 1.113,0 2.018,0.881 2.018,2.11 2.018,3.328 1.113,4.198 0,4.198 -1.102,4.198 -2.018,3.328 -2.018,2.11 -2.018,0.881 -1.102,0 0,0 m 0,5.172 c 1.751,0 3.166,-1.287 3.166,-3.062 0,-1.786 -1.415,-3.085 -3.166,-3.085 -1.751,0 -3.166,1.299 -3.166,3.085 0,1.775 1.415,3.062 3.166,3.062"
             style="fill:#206598;fill-opacity:1;fill-rule:nonzero;stroke:none"
             id="path955" />
        </g>
        <g
           id="g957"
           transform="translate(355.5293,388.8184)">
          <path
             d="m 0,0 h 1.09 v -0.777 c 0,-0.232 -0.024,-0.429 -0.024,-0.429 H 1.09 c 0.231,0.51 0.928,1.345 2.203,1.345 1.38,0 2.018,-0.754 2.018,-2.25 V -5.868 H 4.186 v 3.502 c 0,0.823 -0.174,1.472 -1.114,1.472 -0.892,0 -1.611,-0.59 -1.855,-1.437 C 1.147,-2.563 1.124,-2.83 1.124,-3.12 V -5.868 H 0 Z"
             style="fill:#206598;fill-opacity:1;fill-rule:nonzero;stroke:none"
             id="path959" />
        </g>
      </g>
    </g>
    <g
       id="g961"
       transform="matrix(0.35277777,0,0,-0.35277777,-68.519308,175.39001)">
      <g
         id="g963"
         clip-path="url(#clipPath967)">
        <g
           id="g969"
           transform="translate(229.1694,461.5269)">
          <path
             d="m 0,0 -24.823,-10.273 v -22.251 l 24.752,1.91 z"
             style="fill:#ed1c24;fill-opacity:1;fill-rule:nonzero;stroke:none"
             id="path971" />
        </g>
        <g
           id="g973"
           transform="translate(255.2803,451.3774)">
          <path
             d="m 0,0 18.645,-7.715 v -16.716 l -18.431,1.5 z"
             style="fill:#ed1c24;fill-opacity:1;fill-rule:nonzero;stroke:none"
             id="path975" />
        </g>
        <g
           id="g977"
           transform="translate(255.4805,428.4331)">
          <path
             d="M 0,0 -26.382,2.479 V -28.463 L 0,-21.421 Z"
             style="fill:#ed1c24;fill-opacity:1;fill-rule:nonzero;stroke:none"
             id="path979" />
        </g>
        <g
           id="g981"
           transform="translate(287.4126,425.6772)">
          <path
             d="M 0,0 -13.487,1.27 V -14.552 L 0,-10.953 Z"
             style="fill:#ed1c24;fill-opacity:1;fill-rule:nonzero;stroke:none"
             id="path983" />
        </g>
        <g
           id="g985">
          <g
             id="g987" />
          <g
             id="g999">
            <g
               clip-path="url(#clipPath991)"
               opacity="0.649994"
               id="g997">
              <g
                 transform="translate(355.542,423.6987)"
                 id="g995">
                <path
                   d="M 0,0 H 11.314 V -5.37 H -9.864 v 3.019 L 1.98,12.86 H -8.688 v 5.37 h 19.911 v -3.595 z"
                   style="fill:#206598;fill-opacity:1;fill-rule:nonzero;stroke:none"
                   id="path993" />
              </g>
            </g>
          </g>
        </g>
        <g
           id="g1001">
          <g
             id="g1003" />
          <g
             id="g1015">
            <g
               clip-path="url(#clipPath1007)"
               opacity="0.649994"
               id="g1013">
              <g
                 transform="translate(378.5088,423.6987)"
                 id="g1011">
                <path
                   d="M 0,0 H 11.315 V -5.37 H -9.864 v 3.019 L 1.981,12.86 H -8.688 v 5.37 h 19.913 v -3.595 z"
                   style="fill:#206598;fill-opacity:1;fill-rule:nonzero;stroke:none"
                   id="path1009" />
              </g>
            </g>
          </g>
        </g>
      </g>
    </g>
  </g>
</svg>